<mxfile host="app.diagrams.net" modified="2022-04-27T14:08:18.910Z" agent="5.0 (Windows NT 10.0; Win64; x64) AppleWebKit/537.36 (KHTML, like Gecko) Chrome/100.0.4896.127 Safari/537.36" etag="m9Vsb6gkul0yC9oJSWJF" version="17.4.6" type="github">
  <diagram id="6rTJ905rb7aaBin0io5H" name="Page-1">
    <mxGraphModel dx="1422" dy="762" grid="1" gridSize="10" guides="1" tooltips="1" connect="1" arrows="1" fold="1" page="1" pageScale="1" pageWidth="827" pageHeight="1169" math="0" shadow="0">
      <root>
        <mxCell id="0" />
        <mxCell id="1" parent="0" />
        <mxCell id="y8oe6Nh-Pph26B37slKv-1" value="Sandpit" style="rounded=1;whiteSpace=wrap;html=1;verticalAlign=top;" vertex="1" parent="1">
          <mxGeometry x="40" y="280" width="120" height="60" as="geometry" />
        </mxCell>
        <mxCell id="y8oe6Nh-Pph26B37slKv-2" value="" style="shape=image;verticalLabelPosition=bottom;labelBackgroundColor=default;verticalAlign=top;aspect=fixed;imageAspect=0;image=https://upload.wikimedia.org/wikipedia/commons/thumb/f/fa/Microsoft_Azure.svg/1200px-Microsoft_Azure.svg.png;" vertex="1" parent="1">
          <mxGeometry x="85" y="300" width="30" height="30" as="geometry" />
        </mxCell>
        <mxCell id="y8oe6Nh-Pph26B37slKv-14" style="edgeStyle=orthogonalEdgeStyle;rounded=0;orthogonalLoop=1;jettySize=auto;html=1;entryX=0;entryY=0.5;entryDx=0;entryDy=0;endArrow=block;endFill=1;strokeWidth=8;fillColor=#dae8fc;strokeColor=#6c8ebf;" edge="1" parent="1" source="y8oe6Nh-Pph26B37slKv-3" target="y8oe6Nh-Pph26B37slKv-5">
          <mxGeometry relative="1" as="geometry" />
        </mxCell>
        <mxCell id="y8oe6Nh-Pph26B37slKv-3" value="Development" style="rounded=1;whiteSpace=wrap;html=1;verticalAlign=top;" vertex="1" parent="1">
          <mxGeometry x="240" y="280" width="120" height="60" as="geometry" />
        </mxCell>
        <mxCell id="y8oe6Nh-Pph26B37slKv-4" value="" style="shape=image;verticalLabelPosition=bottom;labelBackgroundColor=default;verticalAlign=top;aspect=fixed;imageAspect=0;image=https://upload.wikimedia.org/wikipedia/commons/thumb/f/fa/Microsoft_Azure.svg/1200px-Microsoft_Azure.svg.png;" vertex="1" parent="1">
          <mxGeometry x="285" y="300" width="30" height="30" as="geometry" />
        </mxCell>
        <mxCell id="y8oe6Nh-Pph26B37slKv-15" style="edgeStyle=orthogonalEdgeStyle;rounded=0;orthogonalLoop=1;jettySize=auto;html=1;endArrow=block;endFill=1;strokeWidth=8;fillColor=#dae8fc;strokeColor=#6c8ebf;" edge="1" parent="1" source="y8oe6Nh-Pph26B37slKv-5" target="y8oe6Nh-Pph26B37slKv-7">
          <mxGeometry relative="1" as="geometry" />
        </mxCell>
        <mxCell id="y8oe6Nh-Pph26B37slKv-16" value="(Optional)" style="edgeStyle=orthogonalEdgeStyle;rounded=0;orthogonalLoop=1;jettySize=auto;html=1;entryX=0;entryY=0.5;entryDx=0;entryDy=0;endArrow=block;endFill=1;strokeWidth=8;dashed=1;fillColor=#e1d5e7;strokeColor=#9673a6;dashPattern=1 1;" edge="1" parent="1" source="y8oe6Nh-Pph26B37slKv-5" target="y8oe6Nh-Pph26B37slKv-11">
          <mxGeometry relative="1" as="geometry">
            <Array as="points">
              <mxPoint x="600" y="310" />
              <mxPoint x="600" y="430" />
            </Array>
          </mxGeometry>
        </mxCell>
        <mxCell id="y8oe6Nh-Pph26B37slKv-5" value="Test" style="rounded=1;whiteSpace=wrap;html=1;verticalAlign=top;" vertex="1" parent="1">
          <mxGeometry x="440" y="280" width="120" height="60" as="geometry" />
        </mxCell>
        <mxCell id="y8oe6Nh-Pph26B37slKv-6" value="" style="shape=image;verticalLabelPosition=bottom;labelBackgroundColor=default;verticalAlign=top;aspect=fixed;imageAspect=0;image=https://upload.wikimedia.org/wikipedia/commons/thumb/f/fa/Microsoft_Azure.svg/1200px-Microsoft_Azure.svg.png;" vertex="1" parent="1">
          <mxGeometry x="485" y="300" width="30" height="30" as="geometry" />
        </mxCell>
        <mxCell id="y8oe6Nh-Pph26B37slKv-17" style="edgeStyle=orthogonalEdgeStyle;rounded=0;orthogonalLoop=1;jettySize=auto;html=1;endArrow=block;endFill=1;strokeWidth=8;fillColor=#dae8fc;strokeColor=#6c8ebf;" edge="1" parent="1" source="y8oe6Nh-Pph26B37slKv-7" target="y8oe6Nh-Pph26B37slKv-9">
          <mxGeometry relative="1" as="geometry" />
        </mxCell>
        <mxCell id="y8oe6Nh-Pph26B37slKv-7" value="Pre-Production" style="rounded=1;whiteSpace=wrap;html=1;verticalAlign=top;" vertex="1" parent="1">
          <mxGeometry x="640" y="280" width="120" height="60" as="geometry" />
        </mxCell>
        <mxCell id="y8oe6Nh-Pph26B37slKv-8" value="" style="shape=image;verticalLabelPosition=bottom;labelBackgroundColor=default;verticalAlign=top;aspect=fixed;imageAspect=0;image=https://upload.wikimedia.org/wikipedia/commons/thumb/f/fa/Microsoft_Azure.svg/1200px-Microsoft_Azure.svg.png;" vertex="1" parent="1">
          <mxGeometry x="685" y="300" width="30" height="30" as="geometry" />
        </mxCell>
        <mxCell id="y8oe6Nh-Pph26B37slKv-9" value="Production" style="rounded=1;whiteSpace=wrap;html=1;verticalAlign=top;" vertex="1" parent="1">
          <mxGeometry x="827" y="280" width="120" height="60" as="geometry" />
        </mxCell>
        <mxCell id="y8oe6Nh-Pph26B37slKv-10" value="" style="shape=image;verticalLabelPosition=bottom;labelBackgroundColor=default;verticalAlign=top;aspect=fixed;imageAspect=0;image=https://upload.wikimedia.org/wikipedia/commons/thumb/f/fa/Microsoft_Azure.svg/1200px-Microsoft_Azure.svg.png;" vertex="1" parent="1">
          <mxGeometry x="872" y="300" width="30" height="30" as="geometry" />
        </mxCell>
        <mxCell id="y8oe6Nh-Pph26B37slKv-11" value="Training" style="rounded=1;whiteSpace=wrap;html=1;verticalAlign=top;" vertex="1" parent="1">
          <mxGeometry x="640" y="400" width="120" height="60" as="geometry" />
        </mxCell>
        <mxCell id="y8oe6Nh-Pph26B37slKv-12" value="" style="shape=image;verticalLabelPosition=bottom;labelBackgroundColor=default;verticalAlign=top;aspect=fixed;imageAspect=0;image=https://upload.wikimedia.org/wikipedia/commons/thumb/f/fa/Microsoft_Azure.svg/1200px-Microsoft_Azure.svg.png;" vertex="1" parent="1">
          <mxGeometry x="685" y="420" width="30" height="30" as="geometry" />
        </mxCell>
        <mxCell id="y8oe6Nh-Pph26B37slKv-27" value="CD worklow" style="edgeStyle=orthogonalEdgeStyle;rounded=0;orthogonalLoop=1;jettySize=auto;html=1;entryX=0.5;entryY=0;entryDx=0;entryDy=0;endArrow=oval;endFill=1;strokeWidth=8;fillColor=#d5e8d4;strokeColor=#82b366;" edge="1" parent="1" source="y8oe6Nh-Pph26B37slKv-18" target="y8oe6Nh-Pph26B37slKv-3">
          <mxGeometry relative="1" as="geometry" />
        </mxCell>
        <mxCell id="y8oe6Nh-Pph26B37slKv-18" value="Azure DevOps" style="rounded=1;whiteSpace=wrap;html=1;verticalAlign=top;" vertex="1" parent="1">
          <mxGeometry x="240" y="140" width="120" height="60" as="geometry" />
        </mxCell>
        <mxCell id="y8oe6Nh-Pph26B37slKv-20" value="" style="aspect=fixed;html=1;points=[];align=center;image;fontSize=12;image=img/lib/azure2/devops/Azure_DevOps.svg;" vertex="1" parent="1">
          <mxGeometry x="285" y="161" width="30" height="30" as="geometry" />
        </mxCell>
        <mxCell id="y8oe6Nh-Pph26B37slKv-25" value="CI workflow" style="edgeStyle=orthogonalEdgeStyle;rounded=0;orthogonalLoop=1;jettySize=auto;html=1;entryX=0.5;entryY=0;entryDx=0;entryDy=0;endArrow=oval;endFill=1;strokeWidth=8;fillColor=#d5e8d4;strokeColor=#82b366;" edge="1" parent="1" source="y8oe6Nh-Pph26B37slKv-21" target="y8oe6Nh-Pph26B37slKv-1">
          <mxGeometry relative="1" as="geometry" />
        </mxCell>
        <mxCell id="y8oe6Nh-Pph26B37slKv-26" value="Package&lt;br&gt;assets" style="edgeStyle=orthogonalEdgeStyle;rounded=0;orthogonalLoop=1;jettySize=auto;html=1;endArrow=oval;endFill=1;strokeWidth=8;fillColor=#d5e8d4;strokeColor=#82b366;" edge="1" parent="1" source="y8oe6Nh-Pph26B37slKv-21" target="y8oe6Nh-Pph26B37slKv-18">
          <mxGeometry relative="1" as="geometry" />
        </mxCell>
        <mxCell id="y8oe6Nh-Pph26B37slKv-21" value="Jenkins" style="rounded=1;whiteSpace=wrap;html=1;verticalAlign=top;" vertex="1" parent="1">
          <mxGeometry x="40" y="140" width="120" height="60" as="geometry" />
        </mxCell>
        <mxCell id="y8oe6Nh-Pph26B37slKv-23" value="" style="shape=image;verticalLabelPosition=bottom;labelBackgroundColor=default;verticalAlign=top;aspect=fixed;imageAspect=0;image=https://upload.wikimedia.org/wikipedia/commons/thumb/e/e9/Jenkins_logo.svg/1200px-Jenkins_logo.svg.png;" vertex="1" parent="1">
          <mxGeometry x="89.13" y="162" width="21.75" height="30" as="geometry" />
        </mxCell>
        <mxCell id="y8oe6Nh-Pph26B37slKv-30" value="- Pull Request workflow&lt;br&gt;- Local development support&lt;br&gt;- Spike environment&lt;br&gt;- Main branch deployments" style="text;html=1;strokeColor=none;fillColor=none;align=left;verticalAlign=top;whiteSpace=wrap;rounded=0;" vertex="1" parent="1">
          <mxGeometry x="40" y="350" width="179.12" height="70" as="geometry" />
        </mxCell>
      </root>
    </mxGraphModel>
  </diagram>
</mxfile>
